<svg width="534" height="534" fill="currentColor" id="a89aa928-01ca-4843-8317-061c51f51a5a" data-name="Capa 1" xmlns="http://www.w3.org/2000/svg" viewBox="0 0 889.03 949.44"><g fill="#00bd7e"><path d="M384.31,183.67c7.36-69.08,42.87-112.83,107.39-138.48q97.79-27.63,171.5,41.3,60.6,65.27,40.61,152.61a153.5,153.5,0,0,0-28.71,54.6A123.9,123.9,0,0,1,607.9,279a341.27,341.27,0,0,1-61.6-48.3c-12.75,9.71-37.94,31.6-37.94,31.6h0s-30.73-30-46.76-42.8c-18.16,16.05-38,33.69-55.72,50.3C386.3,244,383.45,208.34,384.31,183.67Z" transform="translate(-67.49 -37.28)"/><path d="M460.9,247.5q20.33,19.41,40.23,39.47a128.32,128.32,0,0,0,14.8,12.86q52.94,39,120,42.17-54.71,34.65-117.69,25.7a109,109,0,0,1-22-5.48A168.36,168.36,0,0,1,428,316.1a90,90,0,0,1-13.3-22.4Q438.43,271.37,460.9,247.5Z" transform="translate(-67.49 -37.28)" /><path d="M543.5,257.3q13.53,11.06,26.6,23.1a155.23,155.23,0,0,0,79.8,35q-72,9-126-39.2Q533.48,266.26,543.5,257.3Z" transform="translate(-67.49 -37.28)" /></g> <path d="M858.51,226.5a84.33,84.33,0,0,1,15.4.7Q846.21,346,815.81,464.5q-14.71,51.83-33.6,102.21Q789,482.55,792.71,398q-2.44-30.09-4.2-60.2a140.6,140.6,0,0,1,23.1-80.5A102.43,102.43,0,0,1,858.51,226.5Z" transform="translate(-67.49 -37.28)" /><path d="M747.91,236.3h4.2q1,42.69,2.1,85.4a265.08,265.08,0,0,0,5.6,30.8,261.84,261.84,0,0,1,11.9,41.3q-4.9,73.89-10.5,147.71-10.87,78.82-26.6,156.8-18.83,52-73.51,62.3l-224,42a272.53,272.53,0,0,0-110.61,46.2q-61.55,54.88-60.9,137.91a609.31,609.31,0,0,0-156.1-109.9,258.9,258.9,0,0,0-42-14.7,605.77,605.77,0,0,1,63.7-175q20.67-36.09,44.8-70,43.5-54,85.4-109.21a531.6,531.6,0,0,0,79.8-179.2,661.23,661.23,0,0,0,.7-91A65.34,65.34,0,0,1,379,261.5q38,51.4,26.6,114.8-9.15,35.19-19.6,70-12.76,93.84,74.9,129.51a231.87,231.87,0,0,0,95.2,9.8,442.75,442.75,0,0,0,67.2-14.7A193.33,193.33,0,0,1,533.7,601q-15.37,1.62-30.8,2.8l-103.6,1.4a267.9,267.9,0,0,0-124.61,42,334.5,334.5,0,0,1,79.81-21q23-2.06,46.2-2.1,53.9,1.92,107.8.7a326.33,326.33,0,0,0,114.8-30.1,45,45,0,0,1-19.6,25.9q-50.64,18.25-100.8,37.8a361.24,361.24,0,0,0-77,47.6,548.7,548.7,0,0,1,152.6-53.2,157.92,157.92,0,0,0,46.2-19.6,65.73,65.73,0,0,0,17.5-24.5,636.69,636.69,0,0,0,5.6-70A155.14,155.14,0,0,1,605.1,496q-45.54-4.72-72.1-41.3a86.53,86.53,0,0,1-9.1-43.4q53.16,12.48,106.4,24.5,35.54,36.22,72.11,70.7l9.8,12.6a61.65,61.65,0,0,1,2.1,16.81q-4.38,71.46-10.5,142.8a60.5,60.5,0,0,1-18.9,24.5q-30.93,21.82-63,42A181.67,181.67,0,0,0,697.51,720a119.65,119.65,0,0,0,24.5-28.7l4.2-12.6q8.61-78.19,9.8-156.81a102.93,102.93,0,0,0-34.3-47.6q-.71-5.6-1.4-11.2,3.38-39.18,4.9-78.4-23.07-49.38-5.6-100.8Q713.88,249.67,747.91,236.3Z" transform="translate(-67.49 -37.28)" /><path d="M908.91,372.1a122.5,122.5,0,0,1,44.8,4.9l2.8,2.8q-75.35,90-149.1,181.31A867.79,867.79,0,0,0,848,429.5Q863.31,384.44,908.91,372.1Z" transform="translate(-67.49 -37.28)" /></svg>